<svg width="64" height="64" viewBox="0 0 64 64" fill="none" xmlns="http://www.w3.org/2000/svg">
  <defs>
    <linearGradient id="grad1" x1="0%" y1="0%" x2="100%" y2="100%">
      <stop offset="0%" style="stop-color:#3B82F6;stop-opacity:1" />
      <stop offset="100%" style="stop-color:#8B5CF6;stop-opacity:1" />
    </linearGradient>
  </defs>
  
  <!-- Top-right shape -->
  <path d="M32 8 C40 8, 48 16, 48 24 C48 32, 40 40, 32 40 C24 40, 16 32, 16 24 C16 16, 24 8, 32 8 Z" 
        fill="url(#grad1)" transform="rotate(45 32 32)"/>
  
  <!-- Bottom-right shape -->
  <path d="M32 8 C40 8, 48 16, 48 24 C48 32, 40 40, 32 40 C24 40, 16 32, 16 24 C16 16, 24 8, 32 8 Z" 
        fill="url(#grad1)" transform="rotate(135 32 32)"/>
  
  <!-- Bottom-left shape -->
  <path d="M32 8 C40 8, 48 16, 48 24 C48 32, 40 40, 32 40 C24 40, 16 32, 16 24 C16 16, 24 8, 32 8 Z" 
        fill="url(#grad1)" transform="rotate(225 32 32)"/>
  
  <!-- Top-left shape -->
  <path d="M32 8 C40 8, 48 16, 48 24 C48 32, 40 40, 32 40 C24 40, 16 32, 16 24 C16 16, 24 8, 32 8 Z" 
        fill="url(#grad1)" transform="rotate(315 32 32)"/>
</svg> 